<?xml version="1.0" encoding="iso-8859-1"?>
<!-- Generator: Adobe Illustrator 18.1.1, SVG Export Plug-In . SVG Version: 6.00 Build 0)  -->
<svg xmlns="http://www.w3.org/2000/svg" xmlns:xlink="http://www.w3.org/1999/xlink" version="1.1" id="Capa_1" x="0px" y="0px" viewBox="0 0 24.275 24.275" style="enable-background:new 0 0 24.275 24.275;" xml:space="preserve" width="512px" height="512px">
<g>
	<g>
		<path d="M20.906,9.31c-0.667,0.667-2.519-0.103-4.137-1.721c-1.617-1.617-2.388-3.469-1.721-4.137    c0.131-0.131,0.317-0.19,0.527-0.216c-1.343-0.585-2.822-0.915-4.38-0.915C5.133,2.323,0.219,7.237,0.219,13.299    c0,6.061,4.914,10.976,10.976,10.976s10.976-4.915,10.976-10.976c0-1.656-0.377-3.221-1.033-4.628    C21.129,8.934,21.061,9.157,20.906,9.31z" fill="#cdcdcd"/>
		<path d="M19.902,8.78c0,0,5.262-7.246,3.941-8.566c-1.32-1.321-8.381,3.905-8.381,3.905    S15.881,7.391,19.902,8.78z" fill="#cdcdcd"/>
		<path d="M6.927,2.552c0,0-2.892-2.545-3.953-1.824c-1.061,0.72,0.237,4.217,0.237,4.217    S4.353,2.408,6.927,2.552z" fill="#cdcdcd"/>
	</g>
</g>
<g>
</g>
<g>
</g>
<g>
</g>
<g>
</g>
<g>
</g>
<g>
</g>
<g>
</g>
<g>
</g>
<g>
</g>
<g>
</g>
<g>
</g>
<g>
</g>
<g>
</g>
<g>
</g>
<g>
</g>
</svg>
